<svg aria-hidden="true" style="position: absolute; width: 0; height: 0; overflow: hidden;" version="1.1" xmlns="http://www.w3.org/2000/svg" xmlns:xlink="http://www.w3.org/1999/xlink">
<defs>
<symbol xmlns="http://www.w3.org/2000/svg" viewBox="0 0 50 50" id="github">
<path d="M17.791,46.836C18.502,46.53,19,45.823,19,45v-5.4c0-0.197,0.016-0.402,0.041-0.61C19.027,38.994,19.014,38.997,19,39 c0,0-3,0-3.6,0c-1.5,0-2.8-0.6-3.4-1.8c-0.7-1.3-1-3.5-2.8-4.7C8.9,32.3,9.1,32,9.7,32c0.6,0.1,1.9,0.9,2.7,2c0.9,1.1,1.8,2,3.4,2 c2.487,0,3.82-0.125,4.622-0.555C21.356,34.056,22.649,33,24,33v-0.025c-5.668-0.182-9.289-2.066-10.975-4.975 c-3.665,0.042-6.856,0.405-8.677,0.707c-0.058-0.327-0.108-0.656-0.151-0.987c1.797-0.296,4.843-0.647,8.345-0.714 c-0.112-0.276-0.209-0.559-0.291-0.849c-3.511-0.178-6.541-0.039-8.187,0.097c-0.02-0.332-0.047-0.663-0.051-0.999 c1.649-0.135,4.597-0.27,8.018-0.111c-0.079-0.5-0.13-1.011-0.13-1.543c0-1.7,0.6-3.5,1.7-5c-0.5-1.7-1.2-5.3,0.2-6.6 c2.7,0,4.6,1.3,5.5,2.1C21,13.4,22.9,13,25,13s4,0.4,5.6,1.1c0.9-0.8,2.8-2.1,5.5-2.1c1.5,1.4,0.7,5,0.2,6.6c1.1,1.5,1.7,3.2,1.6,5 c0,0.484-0.045,0.951-0.11,1.409c3.499-0.172,6.527-0.034,8.204,0.102c-0.002,0.337-0.033,0.666-0.051,0.999 c-1.671-0.138-4.775-0.28-8.359-0.089c-0.089,0.336-0.197,0.663-0.325,0.98c3.546,0.046,6.665,0.389,8.548,0.689 c-0.043,0.332-0.093,0.661-0.151,0.987c-1.912-0.306-5.171-0.664-8.879-0.682C35.112,30.873,31.557,32.75,26,32.969V33 c2.6,0,5,3.9,5,6.6V45c0,0.823,0.498,1.53,1.209,1.836C41.37,43.804,48,35.164,48,25C48,12.318,37.683,2,25,2S2,12.318,2,25 C2,35.164,8.63,43.804,17.791,46.836z"></path>
</symbol>
<symbol id="icon-linkedin-1" viewBox="0 0 32 32">
<path d="M31.992 32h0.008v-11.738c0-5.741-1.237-10.163-7.947-10.163-3.227 0-5.392 1.77-6.277 3.45h-0.093v-2.914h-6.365v21.363h6.627v-10.578c0-2.786 0.528-5.48 3.978-5.48 3.398 0 3.448 3.179 3.448 5.658v10.402h6.621zM0.528 10.635h6.635v21.365h-6.635v-21.365zM3.843 0c-2.123 0-3.843 1.721-3.843 3.843v0c0 2.12 1.722 3.878 3.843 3.878 2.12 0 3.842-1.757 3.842-3.878s-1.72-3.841-3.841-3.843h-0z"></path>
</symbol>
<symbol id="icon-close-black-18dp-2-1" viewBox="0 0 32 32">
<path d="M26.667 7.303l-1.97-1.97-7.808 7.808-7.808-7.808-1.97 1.97 7.808 7.808-7.808 7.808 1.97 1.97 7.808-7.808 7.808 7.808 1.97-1.97-7.808-7.808 7.808-7.808z"></path>
</symbol>
<symbol id="icon-icon-send" viewBox="0 0 32 32">
<path fill="#fff" style="fill: var(--color1, #fff)" d="M32 0l-32 18 10.227 3.788 15.773-14.788-11.998 16.186 0.010 0.004-0.012-0.004v8.814l5.735-6.691 7.265 2.691 5-28z"></path>
</symbol>
<symbol id="icon-email-black-18dp-1" viewBox="0 0 32 32">
<path d="M26.667 5.333h-21.333c-1.467 0-2.653 1.2-2.653 2.667l-0.013 16c0 1.467 1.2 2.667 2.667 2.667h21.333c1.467 0 2.667-1.2 2.667-2.667v-16c0-1.467-1.2-2.667-2.667-2.667zM26.133 11l-9.427 5.893c-0.427 0.267-0.987 0.267-1.413 0l-9.427-5.893c-0.333-0.213-0.533-0.573-0.533-0.96 0-0.893 0.973-1.427 1.733-0.96l8.933 5.587 8.933-5.587c0.76-0.467 1.733 0.067 1.733 0.96 0 0.387-0.2 0.747-0.533 0.96z"></path>
</symbol>
<symbol id="burger-icon" viewBox="0 0 32 32">
<path d="M6.4 11.733v-2.133h19.2v2.133h-19.2zM6.4 17.067h19.2v-2.133h-19.2v2.133zM6.4 22.4h19.2v-2.133h-19.2v2.133z"></path>
</symbol>
<symbol id="icon-close" viewBox="0 0 32 32">
<path d="M23.733 10.304l-1.504-1.504-5.963 5.963-5.963-5.963-1.504 1.504 5.963 5.963-5.963 5.963 1.504 1.504 5.963-5.963 5.963 5.963 1.504-1.504-5.963-5.963 5.963-5.963z"></path>
</symbol>
</defs>
</svg>
